<?xml version="1.0" standalone="no"?>
<!DOCTYPE svg PUBLIC "-//W3C//DTD SVG 20010904//EN"
 "http://www.w3.org/TR/2001/REC-SVG-20010904/DTD/svg10.dtd">
<svg version="1.0" xmlns="http://www.w3.org/2000/svg"
 width="474.000000pt" height="474.000000pt" viewBox="0 0 474.000000 474.000000"
 preserveAspectRatio="xMidYMid meet">

<g transform="translate(0.000000,474.000000) scale(0.100000,-0.100000)"
fill="#000000" stroke="none">
<path d="M0 2370 l0 -2370 2370 0 2370 0 0 2370 0 2370 -2370 0 -2370 0 0
-2370z m2825 926 c184 -42 315 -165 368 -348 21 -70 22 -94 22 -528 0 -497 -2
-523 -58 -640 -38 -81 -131 -175 -209 -212 -119 -57 -172 -62 -643 -61 -406 0
-434 1 -508 21 -154 42 -269 130 -329 253 -51 104 -58 182 -58 624 -1 477 8
554 76 671 33 56 130 147 190 176 114 58 219 67 704 63 295 -3 390 -7 445 -19z"/>
<path d="M1844 3135 c-145 -31 -221 -109 -255 -260 -19 -84 -20 -819 -1 -919
31 -166 125 -250 307 -276 54 -8 208 -10 470 -8 327 4 399 7 449 21 120 35
193 117 221 247 36 169 29 858 -10 987 -33 111 -116 181 -247 207 -104 21
-839 22 -934 1z m1017 -151 c77 -39 56 -159 -33 -193 -43 -16 -102 8 -124 51
-35 68 -4 136 76 161 18 6 45 0 81 -19z m-395 -134 c80 -28 163 -88 216 -157
211 -278 62 -667 -284 -739 -277 -58 -549 164 -548 448 1 89 12 143 47 217 33
70 131 169 202 206 113 57 251 66 367 25z"/>
<path d="M2181 2679 c-152 -76 -211 -252 -136 -404 31 -64 80 -109 153 -143
47 -21 65 -24 131 -20 122 7 202 61 256 173 123 250 -153 519 -404 394z"/>
</g>
</svg>
